<?xml version="1.0" encoding="UTF-8"?>
<svg width="40px" height="40px" viewBox="0 0 40 40" version="1.1" xmlns="http://www.w3.org/2000/svg" xmlns:xlink="http://www.w3.org/1999/xlink">
    <!-- Generator: Sketch 47.1 (45422) - http://www.bohemiancoding.com/sketch -->
    <title>Clock</title>
    <desc>Created with Sketch.</desc>
    <defs></defs>
    <g id="Page-1" stroke="none" stroke-width="1" fill="none" fill-rule="evenodd">
        <g id="Desktop-HD" transform="translate(-1097.000000, -5617.000000)" fill-rule="nonzero" fill="#FFFFFF">
            <g id="contacts" transform="translate(0.000000, 5275.000000)">
                <g id="Group-4" transform="translate(989.000000, 327.000000)">
                    <path d="M128,15 C116.947368,15 108,23.9473684 108,35 C108,46.0526316 116.947368,55 128,55 C139.052632,55 148,46.0526316 148,35 C148,23.9473684 139.052632,15 128,15 Z M129.052632,52.8421053 L129.052632,51.7894737 C129.052632,51.2105263 128.578947,50.7368421 128,50.7368421 C127.421053,50.7368421 126.947368,51.2105263 126.947368,51.7894737 L126.947368,52.8421053 C117.894737,52.3157895 110.684211,45.0526316 110.157895,36.0526316 L111.210526,36.0526316 C111.789474,36.0526316 112.263158,35.5789474 112.263158,35 C112.263158,34.4210526 111.789474,33.9473684 111.210526,33.9473684 L110.157895,33.9473684 C110.684211,24.8947368 117.947368,17.6842105 126.947368,17.1578947 L126.947368,18.2105263 C126.947368,18.7894737 127.421053,19.2631579 128,19.2631579 C128.578947,19.2631579 129.052632,18.7894737 129.052632,18.2105263 L129.052632,17.1578947 C138.105263,17.6842105 145.315789,24.9473684 145.842105,33.9473684 L144.789474,33.9473684 C144.210526,33.9473684 143.736842,34.4210526 143.736842,35 C143.736842,35.5789474 144.210526,36.0526316 144.789474,36.0526316 L145.842105,36.0526316 C145.315789,45.1052632 138.105263,52.3157895 129.052632,52.8421053 Z M134.315789,41.3157895 C133.894737,41.7368421 133.263158,41.7368421 132.842105,41.3157895 L127.263158,35.7368421 C127.315789,35.7894737 126.947368,35.5263158 126.947368,35 L126.947368,22.3684211 C126.947368,21.7894737 127.421053,21.3157895 128,21.3157895 C128.578947,21.3157895 129.052632,21.7894737 129.052632,22.3684211 L129.052632,34.5789474 L134.315789,39.8421053 C134.736842,40.2631579 134.736842,40.8947368 134.315789,41.3157895 Z" id="Clock"></path>
                </g>
            </g>
        </g>
    </g>
</svg>