<?xml version="1.0" encoding="UTF-8"?>
<svg width="58px" height="57px" viewBox="0 0 58 57" version="1.1" xmlns="http://www.w3.org/2000/svg" xmlns:xlink="http://www.w3.org/1999/xlink">
    <!-- Generator: Sketch 47.1 (45422) - http://www.bohemiancoding.com/sketch -->
    <title>Down</title>
    <desc>Created with Sketch.</desc>
    <defs></defs>
    <g id="Page-1" stroke="none" stroke-width="1" fill="none" fill-rule="evenodd">
        <g id="Desktop-HD" transform="translate(-691.000000, -812.000000)" fill-rule="nonzero" fill="#FFFFFF">
            <g id="offer-1" transform="translate(0.000000, 100.000000)">
                <g id="Down" transform="translate(691.000000, 712.000000)">
                    <g id="Group">
                        <g id="_x37_7_Essential_Icons" transform="translate(0.623188, 0.260870)">
                            <path d="M41.4794203,24.4869565 L28.9391304,37.0272464 C28.6423188,37.324058 28.2713043,37.4724638 27.9002899,37.4724638 C27.5292754,37.4724638 27.1582609,37.324058 26.8614493,37.0272464 L14.9147826,25.0805797 C14.3211594,24.4869565 14.3211594,23.5965217 14.9147826,23.0028986 C15.5084058,22.4092754 16.3988406,22.4092754 16.9924638,23.0028986 L27.9002899,33.9107246 L39.4017391,22.4092754 C39.9953623,21.8156522 40.8857971,21.8156522 41.4794203,22.4092754 C42.0730435,22.9286957 42.0730435,23.8933333 41.4794203,24.4869565 L41.4794203,24.4869565 Z M56.3942029,28.1971014 C56.3942029,43.7797101 43.7797101,56.3942029 28.1971014,56.3942029 C12.6144928,56.3942029 0,43.7797101 0,28.1971014 C0,12.6144928 12.6144928,0 28.1971014,0 C43.7797101,0 56.3942029,12.6144928 56.3942029,28.1971014 Z M53.426087,28.1971014 C53.426087,14.2469565 42.1472464,2.96811594 28.1971014,2.96811594 C14.2469565,2.96811594 2.96811594,14.2469565 2.96811594,28.1971014 C2.96811594,42.1472464 14.2469565,53.426087 28.1971014,53.426087 C42.1472464,53.426087 53.426087,42.1472464 53.426087,28.1971014 Z" id="Down_Arrow"></path>
                        </g>
                    </g>
                </g>
            </g>
        </g>
    </g>
</svg>