<?xml version="1.0" encoding="UTF-8"?>
<svg width="23px" height="39px" viewBox="0 0 23 39" version="1.1" xmlns="http://www.w3.org/2000/svg" xmlns:xlink="http://www.w3.org/1999/xlink">
    <!-- Generator: Sketch 47.1 (45422) - http://www.bohemiancoding.com/sketch -->
    <title>Phone</title>
    <desc>Created with Sketch.</desc>
    <defs></defs>
    <g id="Page-1" stroke="none" stroke-width="1" fill="none" fill-rule="evenodd">
        <g id="Desktop-HD" transform="translate(-708.000000, -5617.000000)" fill-rule="nonzero" fill="#FFFFFF">
            <g id="contacts" transform="translate(0.000000, 5275.000000)">
                <g id="Group-3" transform="translate(623.000000, 327.000000)">
                    <g id="Phone" transform="translate(85.000000, 15.000000)">
                        <g id="Group">
                            <g id="_x37_7_Essential_Icons" transform="translate(0.731401, 0.128502)">
                                <path d="M18.7980676,0 L2.96811594,0 C1.33565217,0 0,1.33565217 0,2.96811594 L0,35.6173913 C0,37.2498551 1.33565217,38.5855072 2.96811594,38.5855072 L18.7980676,38.5855072 C20.4305314,38.5855072 21.7661836,37.2498551 21.7661836,35.6173913 L21.7661836,2.96811594 C21.7661836,1.33565217 20.4305314,0 18.7980676,0 Z M19.7874396,35.6173913 C19.7874396,36.1615459 19.3422222,36.6067633 18.7980676,36.6067633 L2.96811594,36.6067633 C2.42396135,36.6067633 1.97874396,36.1615459 1.97874396,35.6173913 L1.97874396,33.6386473 L19.7874396,33.6386473 L19.7874396,35.6173913 Z M19.7874396,31.6599034 L1.97874396,31.6599034 L1.97874396,6.92560386 L19.7874396,6.92560386 L19.7874396,31.6599034 Z M19.7874396,4.9468599 L1.97874396,4.9468599 L1.97874396,2.96811594 C1.97874396,2.42396135 2.42396135,1.97874396 2.96811594,1.97874396 L18.7980676,1.97874396 C19.3422222,1.97874396 19.7874396,2.42396135 19.7874396,2.96811594 L19.7874396,4.9468599 Z" id="Phone"></path>
                            </g>
                        </g>
                    </g>
                </g>
            </g>
        </g>
    </g>
</svg>