<?xml version="1.0" encoding="UTF-8"?>
<svg width="36px" height="36px" viewBox="0 0 36 36" version="1.1" xmlns="http://www.w3.org/2000/svg" xmlns:xlink="http://www.w3.org/1999/xlink">
    <!-- Generator: Sketch 47.1 (45422) - http://www.bohemiancoding.com/sketch -->
    <title>Vk</title>
    <desc>Created with Sketch.</desc>
    <defs></defs>
    <g id="Page-1" stroke="none" stroke-width="1" fill="none" fill-rule="evenodd">
        <g id="Desktop-HD" transform="translate(-1269.000000, -32.000000)" fill-rule="nonzero" fill="#3023AE">
            <g id="header">
                <g id="contacts" transform="translate(952.000000, 29.000000)">
                    <g id="Vk" transform="translate(317.000000, 3.000000)">
                        <g id="VK_w_x2F__circle">
                            <path d="M18,0.72 C8.4564,0.72 0.72,8.4564 0.72,18 C0.72,27.5436 8.4564,35.28 18,35.28 C27.5436,35.28 35.28,27.5436 35.28,18 C35.28,8.4564 27.5436,0.72 18,0.72 Z M24.6456,20.2158 C24.6456,20.2158 26.1738,21.7242 26.55,22.4244 C26.5608,22.4388 26.5662,22.4532 26.5698,22.4604 C26.7228,22.7178 26.7588,22.9176 26.6832,23.067 C26.5572,23.3154 26.1252,23.4378 25.9776,23.4486 L23.2776,23.4486 C23.0904,23.4486 22.698,23.4 22.2228,23.0724 C21.8574,22.8168 21.4974,22.3974 21.1464,21.9888 C20.6226,21.3804 20.169,20.8548 19.7118,20.8548 C19.6537308,20.8546998 19.5960134,20.8638131 19.5408,20.8818 C19.1952,20.9934 18.7524,21.4866 18.7524,22.8006 C18.7524,23.211 18.4284,23.4468 18.1998,23.4468 L16.9632,23.4468 C16.542,23.4468 14.3478,23.2992 12.4038,21.249 C10.0242,18.738 7.8822,13.7016 7.8642,13.6548 C7.7292,13.329 8.0082,13.1544 8.3124,13.1544 L11.0394,13.1544 C11.403,13.1544 11.5218,13.3758 11.6046,13.572 C11.7018,13.8006 12.0582,14.7096 12.6432,15.732 C13.5918,17.3988 14.1732,18.0756 14.6394,18.0756 C14.7268158,18.0745712 14.8126748,18.0523343 14.8896,18.0108 C15.498,17.6724 15.3846,15.5034 15.3576,15.0534 C15.3576,14.9688 15.3558,14.0832 15.0444,13.6584 C14.8212,13.3506 14.4414,13.2336 14.211,13.1904 C14.3042539,13.0617201 14.4271151,12.9573806 14.5692,12.8862 C14.9868,12.6774 15.7392,12.6468 16.4862,12.6468 L16.902,12.6468 C17.712,12.6576 17.9208,12.7098 18.2142,12.7836 C18.8082,12.9258 18.8208,13.3092 18.7686,14.6214 C18.7524,14.994 18.7362,15.4152 18.7362,15.912 C18.7362,16.02 18.7308,16.1352 18.7308,16.2576 C18.7128,16.9254 18.6912,17.6832 19.1628,17.9946 C19.2243121,18.0331712 19.2953955,18.053748 19.368,18.054 C19.5318,18.054 20.025,18.054 21.3606,15.7626 C21.7725046,15.0250638 22.1304413,14.2586582 22.4316,13.4694 C22.4586,13.4226 22.5378,13.2786 22.6314,13.2228 C22.7004761,13.1875847 22.7770709,13.1696714 22.8546,13.1706 L26.0604,13.1706 C26.4096,13.1706 26.649,13.2228 26.694,13.3578 C26.7732,13.572 26.6796,14.2254 25.2162,16.2072 L24.5628,17.0694 C23.2362,18.8082 23.2362,18.8964 24.6456,20.2158 L24.6456,20.2158 Z" id="Shape"></path>
                        </g>
                    </g>
                </g>
            </g>
        </g>
    </g>
</svg>